<mxfile modified="2020-08-21T08:31:12.502Z" host="app.diagrams.net" agent="5.0 (Windows)" etag="6VhHeBij1Hob23KWqbhI" version="13.6.4" type="github">
  <diagram id="gwVdG-KHAgIQCyrvABbW" name="RhomMap">
    <mxGraphModel dx="2912" dy="2241" grid="1" gridSize="10" guides="1" tooltips="1" connect="1" arrows="1" fold="1" page="1" pageScale="1" pageWidth="850" pageHeight="1100" math="0" shadow="0">
      <root>
        <mxCell id="0" />
        <mxCell id="1" parent="0" />
        <mxCell id="i8JC3EVUsBnXg4Bw61Ws-2" value="The Eastern Wind" style="rounded=1;whiteSpace=wrap;html=1;" parent="1" vertex="1">
          <mxGeometry y="80" width="120" height="40" as="geometry" />
        </mxCell>
        <mxCell id="i8JC3EVUsBnXg4Bw61Ws-6" value="&lt;div&gt;Undying Throne&lt;/div&gt;" style="rounded=1;whiteSpace=wrap;html=1;" parent="1" vertex="1">
          <mxGeometry x="-160" y="160" width="120" height="40" as="geometry" />
        </mxCell>
        <mxCell id="ELnaeVgZSDdQy1VC78Dr-32" style="edgeStyle=orthogonalEdgeStyle;rounded=0;orthogonalLoop=1;jettySize=auto;html=1;exitX=1;exitY=0.5;exitDx=0;exitDy=0;entryX=0;entryY=0.5;entryDx=0;entryDy=0;" parent="1" source="i8JC3EVUsBnXg4Bw61Ws-4" target="ELnaeVgZSDdQy1VC78Dr-7" edge="1">
          <mxGeometry relative="1" as="geometry" />
        </mxCell>
        <mxCell id="i8JC3EVUsBnXg4Bw61Ws-4" value="The Eastern Wind II" style="rounded=1;whiteSpace=wrap;html=1;" parent="1" vertex="1">
          <mxGeometry y="160" width="120" height="40" as="geometry" />
        </mxCell>
        <mxCell id="i8JC3EVUsBnXg4Bw61Ws-39" value="" style="edgeStyle=orthogonalEdgeStyle;rounded=0;orthogonalLoop=1;jettySize=auto;html=1;shape=link;entryX=0.5;entryY=0;entryDx=0;entryDy=0;" parent="1" target="i8JC3EVUsBnXg4Bw61Ws-13" edge="1">
          <mxGeometry relative="1" as="geometry">
            <mxPoint x="-100" y="40" as="sourcePoint" />
          </mxGeometry>
        </mxCell>
        <mxCell id="i8JC3EVUsBnXg4Bw61Ws-13" value="Vault of the Herald" style="rounded=1;whiteSpace=wrap;html=1;" parent="1" vertex="1">
          <mxGeometry x="-160" y="80" width="120" height="40" as="geometry" />
        </mxCell>
        <mxCell id="i8JC3EVUsBnXg4Bw61Ws-17" value="" style="edgeStyle=orthogonalEdgeStyle;rounded=0;orthogonalLoop=1;jettySize=auto;html=1;exitX=0;exitY=0.5;exitDx=0;exitDy=0;" parent="1" source="i8JC3EVUsBnXg4Bw61Ws-2" target="i8JC3EVUsBnXg4Bw61Ws-13" edge="1">
          <mxGeometry relative="1" as="geometry">
            <mxPoint y="100" as="sourcePoint" />
            <mxPoint x="-100" y="280" as="targetPoint" />
          </mxGeometry>
        </mxCell>
        <mxCell id="i8JC3EVUsBnXg4Bw61Ws-23" value="&amp;nbsp;Path&amp;nbsp;" style="endArrow=open;endFill=1;endSize=12;html=1;" parent="1" edge="1">
          <mxGeometry width="160" relative="1" as="geometry">
            <mxPoint x="480" y="40.5" as="sourcePoint" />
            <mxPoint x="600" y="41" as="targetPoint" />
          </mxGeometry>
        </mxCell>
        <mxCell id="i8JC3EVUsBnXg4Bw61Ws-24" value="&amp;nbsp;Shortcut&amp;nbsp;" style="endArrow=open;endFill=1;endSize=12;html=1;dashed=1;" parent="1" edge="1">
          <mxGeometry width="160" relative="1" as="geometry">
            <mxPoint x="480" y="60.5" as="sourcePoint" />
            <mxPoint x="600" y="61" as="targetPoint" />
          </mxGeometry>
        </mxCell>
        <mxCell id="i8JC3EVUsBnXg4Bw61Ws-25" value="&amp;nbsp;One Of&amp;nbsp;" style="endArrow=open;endFill=1;html=1;shape=link;" parent="1" edge="1">
          <mxGeometry width="160" relative="1" as="geometry">
            <mxPoint x="480" y="81" as="sourcePoint" />
            <mxPoint x="600" y="81.5" as="targetPoint" />
          </mxGeometry>
        </mxCell>
        <mxCell id="hYFK_gtmnXKeufP--rRr-4" value="" style="whiteSpace=wrap;html=1;aspect=fixed;glass=0;comic=0;rounded=1;image=https://remnantfromtheashes.wiki.fextralife.com/file/Remnant-From-The-Ashes/simulacrum_crafting_material_remnant_from_the_ashes_wiki_guide_220px.png;fillColor=#ffe6cc;imageWidth=20;imageHeight=20;imageAspect=1;imageAlign=center;absoluteArcSize=0;rotation=0;strokeColor=#d79b00;shadow=0;" parent="1" vertex="1">
          <mxGeometry x="480" y="130" width="20" height="20" as="geometry" />
        </mxCell>
        <mxCell id="hYFK_gtmnXKeufP--rRr-15" value="" style="whiteSpace=wrap;html=1;aspect=fixed;glass=0;comic=0;rounded=1;image=https://remnantfromtheashes.wiki.fextralife.com/file/Remnant-From-The-Ashes/favicon-64.png;fillColor=#f8cecc;imageWidth=20;imageHeight=20;imageAspect=1;imageAlign=center;absoluteArcSize=0;rotation=0;strokeColor=#b85450;shadow=0;" parent="1" vertex="1">
          <mxGeometry x="480" y="100" width="20" height="20" as="geometry" />
        </mxCell>
        <mxCell id="hYFK_gtmnXKeufP--rRr-20" value="" style="whiteSpace=wrap;html=1;aspect=fixed;glass=0;comic=0;rounded=1;image=https://remnantfromtheashes.wiki.fextralife.com/file/Remnant-From-The-Ashes/favicon-64.png;fillColor=#f8cecc;imageWidth=20;imageHeight=20;imageAspect=1;imageAlign=center;absoluteArcSize=0;rotation=0;strokeColor=#b85450;shadow=0;" parent="1" vertex="1">
          <mxGeometry y="120" width="20" height="20" as="geometry" />
        </mxCell>
        <mxCell id="hYFK_gtmnXKeufP--rRr-23" value="" style="strokeWidth=2;html=1;shape=mxgraph.flowchart.annotation_2;align=left;pointerEvents=1;rounded=1;shadow=0;glass=0;comic=0;fillColor=none;" parent="1" vertex="1">
          <mxGeometry x="-240" width="50" height="680" as="geometry" />
        </mxCell>
        <mxCell id="hYFK_gtmnXKeufP--rRr-26" value="&lt;div&gt;Rhom&lt;/div&gt;" style="text;html=1;strokeColor=none;fillColor=none;align=right;verticalAlign=middle;whiteSpace=wrap;rounded=0;shadow=0;glass=0;comic=0;" parent="1" vertex="1">
          <mxGeometry x="-290" y="330" width="40" height="20" as="geometry" />
        </mxCell>
        <mxCell id="hYFK_gtmnXKeufP--rRr-28" value="Simulacrum" style="text;html=1;strokeColor=none;fillColor=none;align=left;verticalAlign=middle;whiteSpace=wrap;rounded=0;shadow=0;glass=0;comic=0;" parent="1" vertex="1">
          <mxGeometry x="520" y="130" width="240" height="22" as="geometry" />
        </mxCell>
        <mxCell id="hYFK_gtmnXKeufP--rRr-30" value="Checkpoint" style="text;html=1;strokeColor=none;fillColor=none;align=left;verticalAlign=middle;whiteSpace=wrap;rounded=0;shadow=0;glass=0;comic=0;" parent="1" vertex="1">
          <mxGeometry x="520" y="100" width="240" height="23" as="geometry" />
        </mxCell>
        <mxCell id="hYFK_gtmnXKeufP--rRr-31" value="Legend" style="text;html=1;strokeColor=none;fillColor=none;align=left;verticalAlign=middle;whiteSpace=wrap;rounded=0;shadow=0;glass=0;comic=0;fontStyle=1;fontSize=18;" parent="1" vertex="1">
          <mxGeometry x="480" width="40" height="20" as="geometry" />
        </mxCell>
        <mxCell id="VroCm4Ln8UbIvC11AFh9-3" value="1" style="whiteSpace=wrap;html=1;aspect=fixed;glass=0;comic=0;rounded=1;fillColor=#e51400;imageWidth=20;imageHeight=20;imageAspect=1;imageAlign=center;absoluteArcSize=0;rotation=0;strokeColor=#B20000;shadow=0;fontColor=#ffffff;" parent="1" vertex="1">
          <mxGeometry x="480" y="340" width="20" height="20" as="geometry" />
        </mxCell>
        <mxCell id="VroCm4Ln8UbIvC11AFh9-4" value="Armor Vault: Vault of the Hearld" style="text;html=1;strokeColor=none;fillColor=none;align=left;verticalAlign=middle;whiteSpace=wrap;rounded=0;shadow=0;glass=0;comic=0;" parent="1" vertex="1">
          <mxGeometry x="520" y="340" width="240" height="22" as="geometry" />
        </mxCell>
        <mxCell id="VroCm4Ln8UbIvC11AFh9-7" value="2" style="whiteSpace=wrap;html=1;aspect=fixed;glass=0;comic=0;rounded=1;fillColor=#e51400;imageWidth=20;imageHeight=20;imageAspect=1;imageAlign=center;absoluteArcSize=0;rotation=0;strokeColor=#B20000;shadow=0;fontColor=#ffffff;" parent="1" vertex="1">
          <mxGeometry x="480" y="370" width="20" height="20" as="geometry" />
        </mxCell>
        <mxCell id="VroCm4Ln8UbIvC11AFh9-8" value="The Clean Room" style="text;html=1;strokeColor=none;fillColor=none;align=left;verticalAlign=middle;whiteSpace=wrap;rounded=0;shadow=0;glass=0;comic=0;" parent="1" vertex="1">
          <mxGeometry x="520" y="370" width="240" height="22" as="geometry" />
        </mxCell>
        <mxCell id="VroCm4Ln8UbIvC11AFh9-10" value="Undying King: Harrow Boss" style="text;html=1;strokeColor=none;fillColor=none;align=left;verticalAlign=middle;whiteSpace=wrap;rounded=0;shadow=0;glass=0;comic=0;" parent="1" vertex="1">
          <mxGeometry x="520" y="550" width="240" height="22" as="geometry" />
        </mxCell>
        <mxCell id="VroCm4Ln8UbIvC11AFh9-16" value="" style="whiteSpace=wrap;html=1;aspect=fixed;glass=0;comic=0;rounded=1;fillColor=#e1d5e7;imageWidth=20;imageHeight=20;imageAspect=1;imageAlign=center;absoluteArcSize=0;rotation=0;strokeColor=#9673a6;shadow=0;" parent="1" vertex="1">
          <mxGeometry x="480" y="190" width="20" height="20" as="geometry" />
        </mxCell>
        <mxCell id="VroCm4Ln8UbIvC11AFh9-17" value="Purple Item" style="text;html=1;strokeColor=none;fillColor=none;align=left;verticalAlign=middle;whiteSpace=wrap;rounded=0;shadow=0;glass=0;comic=0;" parent="1" vertex="1">
          <mxGeometry x="520" y="190" width="240" height="22" as="geometry" />
        </mxCell>
        <mxCell id="VroCm4Ln8UbIvC11AFh9-18" value="" style="whiteSpace=wrap;html=1;aspect=fixed;glass=0;comic=0;rounded=1;image=https://remnantfromtheashes.wiki.fextralife.com/file/Remnant-From-The-Ashes/trait_book_consumable_remnant_from_the_ashes_wiki_guide_220px.png;fillColor=#dae8fc;imageWidth=20;imageHeight=20;imageAspect=1;imageAlign=center;absoluteArcSize=0;rotation=0;strokeColor=#6c8ebf;shadow=0;" parent="1" vertex="1">
          <mxGeometry x="480" y="160" width="20" height="20" as="geometry" />
        </mxCell>
        <mxCell id="VroCm4Ln8UbIvC11AFh9-19" value="Tome of Knowledge" style="text;html=1;strokeColor=none;fillColor=none;align=left;verticalAlign=middle;whiteSpace=wrap;rounded=0;shadow=0;glass=0;comic=0;" parent="1" vertex="1">
          <mxGeometry x="520" y="160" width="240" height="23" as="geometry" />
        </mxCell>
        <mxCell id="VroCm4Ln8UbIvC11AFh9-26" value="" style="whiteSpace=wrap;html=1;aspect=fixed;glass=0;comic=0;rounded=1;image=https://remnantfromtheashes.wiki.fextralife.com/file/Remnant-From-The-Ashes/trait_book_consumable_remnant_from_the_ashes_wiki_guide_220px.png;fillColor=#dae8fc;imageWidth=20;imageHeight=20;imageAspect=1;imageAlign=center;absoluteArcSize=0;rotation=0;strokeColor=#6c8ebf;shadow=0;" parent="1" vertex="1">
          <mxGeometry x="-160" y="120" width="20" height="20" as="geometry" />
        </mxCell>
        <mxCell id="VroCm4Ln8UbIvC11AFh9-43" value="1" style="whiteSpace=wrap;html=1;aspect=fixed;glass=0;comic=0;rounded=1;fillColor=#e1d5e7;imageWidth=20;imageHeight=20;imageAspect=1;imageAlign=center;absoluteArcSize=0;rotation=0;strokeColor=#9673a6;shadow=0;image=https://remnantfromtheashes.wiki.fextralife.com/file/Remnant-From-The-Ashes/akari_armor_remnant_from_the_ashes_wiki_guide_220px.png;fontStyle=0;fontColor=#FFFFFF;labelBackgroundColor=#00000060;" parent="1" vertex="1">
          <mxGeometry x="480" y="221" width="20" height="20" as="geometry" />
        </mxCell>
        <mxCell id="VroCm4Ln8UbIvC11AFh9-44" value="Akari Set" style="text;html=1;strokeColor=none;fillColor=none;align=left;verticalAlign=middle;whiteSpace=wrap;rounded=0;shadow=0;glass=0;comic=0;" parent="1" vertex="1">
          <mxGeometry x="520" y="221" width="240" height="22" as="geometry" />
        </mxCell>
        <mxCell id="VroCm4Ln8UbIvC11AFh9-47" value="3" style="whiteSpace=wrap;html=1;aspect=fixed;glass=0;comic=0;rounded=1;fillColor=#e51400;imageWidth=20;imageHeight=20;imageAspect=1;imageAlign=center;absoluteArcSize=0;rotation=0;strokeColor=#B20000;shadow=0;fontColor=#ffffff;" parent="1" vertex="1">
          <mxGeometry x="480" y="400" width="20" height="20" as="geometry" />
        </mxCell>
        <mxCell id="VroCm4Ln8UbIvC11AFh9-48" value="The Monolith" style="text;html=1;strokeColor=none;fillColor=none;align=left;verticalAlign=middle;whiteSpace=wrap;rounded=0;shadow=0;glass=0;comic=0;" parent="1" vertex="1">
          <mxGeometry x="520" y="400" width="240" height="22" as="geometry" />
        </mxCell>
        <mxCell id="VroCm4Ln8UbIvC11AFh9-50" value="2" style="whiteSpace=wrap;html=1;aspect=fixed;glass=0;comic=0;rounded=1;fillColor=#e1d5e7;imageWidth=20;imageHeight=20;imageAspect=1;imageAlign=center;absoluteArcSize=0;rotation=0;strokeColor=#9673a6;shadow=0;image=https://remnantfromtheashes.wiki.fextralife.com/file/Remnant-From-The-Ashes/voidcarapace_armor_remnant_from_the_ashes_wiki_guide_220px.png;fontStyle=0;fontColor=#FFFFFF;labelBackgroundColor=#00000060;" parent="1" vertex="1">
          <mxGeometry x="480" y="250" width="20" height="20" as="geometry" />
        </mxCell>
        <mxCell id="VroCm4Ln8UbIvC11AFh9-51" value="Void Set" style="text;html=1;strokeColor=none;fillColor=none;align=left;verticalAlign=middle;whiteSpace=wrap;rounded=0;shadow=0;glass=0;comic=0;" parent="1" vertex="1">
          <mxGeometry x="520" y="250" width="240" height="22" as="geometry" />
        </mxCell>
        <mxCell id="VroCm4Ln8UbIvC11AFh9-53" value="&lt;div&gt;Beam Rifle (Gantry)&lt;/div&gt;" style="text;html=1;strokeColor=none;fillColor=none;align=left;verticalAlign=middle;whiteSpace=wrap;rounded=0;shadow=0;glass=0;comic=0;" parent="1" vertex="1">
          <mxGeometry x="520" y="280" width="240" height="22" as="geometry" />
        </mxCell>
        <mxCell id="VroCm4Ln8UbIvC11AFh9-63" value="4" style="whiteSpace=wrap;html=1;glass=0;comic=0;rounded=1;fillColor=#e1d5e7;imageWidth=35;imageHeight=12;imageAspect=1;imageAlign=center;absoluteArcSize=0;rotation=0;strokeColor=#9673a6;shadow=0;image=https://remnantfromtheashes.wiki.fextralife.com/file/Remnant-From-The-Ashes/wastelandflail_melee_weapon_remnant_from_the_ashes_wiki_guide_250px.png;fontStyle=0;fontColor=#FFFFFF;labelBackgroundColor=#00000060;" parent="1" vertex="1">
          <mxGeometry x="480" y="310" width="20" height="20" as="geometry" />
        </mxCell>
        <mxCell id="VroCm4Ln8UbIvC11AFh9-64" value="Wastelander Flail" style="text;html=1;strokeColor=none;fillColor=none;align=left;verticalAlign=middle;whiteSpace=wrap;rounded=0;shadow=0;glass=0;comic=0;" parent="1" vertex="1">
          <mxGeometry x="520" y="310" width="240" height="22" as="geometry" />
        </mxCell>
        <mxCell id="VroCm4Ln8UbIvC11AFh9-81" value="4" style="whiteSpace=wrap;html=1;aspect=fixed;glass=0;comic=0;rounded=1;fillColor=#e51400;imageWidth=20;imageHeight=20;imageAspect=1;imageAlign=center;absoluteArcSize=0;rotation=0;strokeColor=#B20000;shadow=0;fontColor=#ffffff;" parent="1" vertex="1">
          <mxGeometry x="480" y="430" width="20" height="20" as="geometry" />
        </mxCell>
        <mxCell id="VroCm4Ln8UbIvC11AFh9-82" value="The Lost Gantry" style="text;html=1;strokeColor=none;fillColor=none;align=left;verticalAlign=middle;whiteSpace=wrap;rounded=0;shadow=0;glass=0;comic=0;" parent="1" vertex="1">
          <mxGeometry x="520" y="430" width="240" height="22" as="geometry" />
        </mxCell>
        <mxCell id="VroCm4Ln8UbIvC11AFh9-83" value="5" style="whiteSpace=wrap;html=1;aspect=fixed;glass=0;comic=0;rounded=1;fillColor=#e51400;imageWidth=20;imageHeight=20;imageAspect=1;imageAlign=center;absoluteArcSize=0;rotation=0;strokeColor=#B20000;shadow=0;fontColor=#ffffff;" parent="1" vertex="1">
          <mxGeometry x="480" y="460" width="20" height="20" as="geometry" />
        </mxCell>
        <mxCell id="VroCm4Ln8UbIvC11AFh9-85" value="6" style="whiteSpace=wrap;html=1;aspect=fixed;glass=0;comic=0;rounded=1;fillColor=#e51400;imageWidth=20;imageHeight=20;imageAspect=1;imageAlign=center;absoluteArcSize=0;rotation=0;strokeColor=#B20000;shadow=0;fontColor=#ffffff;" parent="1" vertex="1">
          <mxGeometry x="480" y="490" width="20" height="20" as="geometry" />
        </mxCell>
        <mxCell id="VroCm4Ln8UbIvC11AFh9-86" value="&lt;div&gt;Scourge Boss&lt;/div&gt;" style="text;html=1;strokeColor=none;fillColor=none;align=left;verticalAlign=middle;whiteSpace=wrap;rounded=0;shadow=0;glass=0;comic=0;" parent="1" vertex="1">
          <mxGeometry x="520" y="490" width="240" height="22" as="geometry" />
        </mxCell>
        <mxCell id="VroCm4Ln8UbIvC11AFh9-87" value="7" style="whiteSpace=wrap;html=1;aspect=fixed;glass=0;comic=0;rounded=1;fillColor=#e51400;imageWidth=20;imageHeight=20;imageAspect=1;imageAlign=center;absoluteArcSize=0;rotation=0;strokeColor=#B20000;shadow=0;fontColor=#ffffff;" parent="1" vertex="1">
          <mxGeometry x="480" y="520" width="20" height="20" as="geometry" />
        </mxCell>
        <mxCell id="VroCm4Ln8UbIvC11AFh9-89" value="8" style="whiteSpace=wrap;html=1;aspect=fixed;glass=0;comic=0;rounded=1;fillColor=#e51400;imageWidth=20;imageHeight=20;imageAspect=1;imageAlign=center;absoluteArcSize=0;rotation=0;strokeColor=#B20000;shadow=0;fontColor=#ffffff;" parent="1" vertex="1">
          <mxGeometry x="480" y="550" width="20" height="20" as="geometry" />
        </mxCell>
        <mxCell id="VroCm4Ln8UbIvC11AFh9-90" value="Undying King: Claviger Boss" style="text;html=1;strokeColor=none;fillColor=none;align=left;verticalAlign=middle;whiteSpace=wrap;rounded=0;shadow=0;glass=0;comic=0;" parent="1" vertex="1">
          <mxGeometry x="520" y="520" width="240" height="22" as="geometry" />
        </mxCell>
        <mxCell id="VroCm4Ln8UbIvC11AFh9-126" value="7" style="whiteSpace=wrap;html=1;aspect=fixed;glass=0;comic=0;rounded=1;fillColor=#e51400;imageWidth=20;imageHeight=20;imageAspect=1;imageAlign=center;absoluteArcSize=0;rotation=0;strokeColor=#B20000;shadow=0;fontColor=#ffffff;" parent="1" vertex="1">
          <mxGeometry y="280" width="20" height="20" as="geometry" />
        </mxCell>
        <mxCell id="VroCm4Ln8UbIvC11AFh9-129" value="8" style="whiteSpace=wrap;html=1;aspect=fixed;glass=0;comic=0;rounded=1;fillColor=#e51400;imageWidth=20;imageHeight=20;imageAspect=1;imageAlign=center;absoluteArcSize=0;rotation=0;strokeColor=#B20000;shadow=0;fontColor=#ffffff;" parent="1" vertex="1">
          <mxGeometry x="-160" y="282" width="20" height="20" as="geometry" />
        </mxCell>
        <mxCell id="ELnaeVgZSDdQy1VC78Dr-69" value="" style="edgeStyle=orthogonalEdgeStyle;rounded=0;orthogonalLoop=1;jettySize=auto;html=1;" parent="1" source="iawqlcGQq6YOHTNZ5fg3-1" target="i8JC3EVUsBnXg4Bw61Ws-2" edge="1">
          <mxGeometry relative="1" as="geometry" />
        </mxCell>
        <mxCell id="iawqlcGQq6YOHTNZ5fg3-1" value="Keepers Tower" style="rounded=1;whiteSpace=wrap;html=1;" parent="1" vertex="1">
          <mxGeometry width="120" height="40" as="geometry" />
        </mxCell>
        <mxCell id="ELnaeVgZSDdQy1VC78Dr-2" value="" style="edgeStyle=orthogonalEdgeStyle;rounded=0;orthogonalLoop=1;jettySize=auto;html=1;exitX=0.5;exitY=1;exitDx=0;exitDy=0;entryX=0.5;entryY=0;entryDx=0;entryDy=0;" parent="1" source="i8JC3EVUsBnXg4Bw61Ws-2" target="i8JC3EVUsBnXg4Bw61Ws-4" edge="1">
          <mxGeometry relative="1" as="geometry">
            <mxPoint x="60" y="146" as="sourcePoint" />
            <mxPoint x="60" y="186" as="targetPoint" />
          </mxGeometry>
        </mxCell>
        <mxCell id="ELnaeVgZSDdQy1VC78Dr-3" value="" style="whiteSpace=wrap;html=1;aspect=fixed;glass=0;comic=0;rounded=1;image=https://remnantfromtheashes.wiki.fextralife.com/file/Remnant-From-The-Ashes/favicon-64.png;fillColor=#f8cecc;imageWidth=20;imageHeight=20;imageAspect=1;imageAlign=center;absoluteArcSize=0;rotation=0;strokeColor=#b85450;shadow=0;" parent="1" vertex="1">
          <mxGeometry y="200" width="20" height="20" as="geometry" />
        </mxCell>
        <mxCell id="ELnaeVgZSDdQy1VC78Dr-4" value="" style="whiteSpace=wrap;html=1;aspect=fixed;glass=0;comic=0;rounded=1;image=https://remnantfromtheashes.wiki.fextralife.com/file/Remnant-From-The-Ashes/trait_book_consumable_remnant_from_the_ashes_wiki_guide_220px.png;fillColor=#dae8fc;imageWidth=20;imageHeight=20;imageAspect=1;imageAlign=center;absoluteArcSize=0;rotation=0;strokeColor=#6c8ebf;shadow=0;" parent="1" vertex="1">
          <mxGeometry x="20" y="200" width="20" height="20" as="geometry" />
        </mxCell>
        <mxCell id="ELnaeVgZSDdQy1VC78Dr-34" value="" style="edgeStyle=orthogonalEdgeStyle;rounded=0;orthogonalLoop=1;jettySize=auto;html=1;" parent="1" source="ELnaeVgZSDdQy1VC78Dr-5" target="ELnaeVgZSDdQy1VC78Dr-17" edge="1">
          <mxGeometry relative="1" as="geometry" />
        </mxCell>
        <mxCell id="ELnaeVgZSDdQy1VC78Dr-51" value="" style="edgeStyle=orthogonalEdgeStyle;rounded=0;orthogonalLoop=1;jettySize=auto;html=1;" parent="1" source="ELnaeVgZSDdQy1VC78Dr-5" target="ELnaeVgZSDdQy1VC78Dr-48" edge="1">
          <mxGeometry relative="1" as="geometry" />
        </mxCell>
        <mxCell id="ELnaeVgZSDdQy1VC78Dr-5" value="Scouring Wastes" style="rounded=1;whiteSpace=wrap;html=1;" parent="1" vertex="1">
          <mxGeometry x="160" y="320" width="120" height="40" as="geometry" />
        </mxCell>
        <mxCell id="ELnaeVgZSDdQy1VC78Dr-33" value="" style="edgeStyle=orthogonalEdgeStyle;rounded=0;orthogonalLoop=1;jettySize=auto;html=1;" parent="1" source="ELnaeVgZSDdQy1VC78Dr-7" target="ELnaeVgZSDdQy1VC78Dr-10" edge="1">
          <mxGeometry relative="1" as="geometry" />
        </mxCell>
        <mxCell id="ELnaeVgZSDdQy1VC78Dr-7" value="Shackled Canyon" style="rounded=1;whiteSpace=wrap;html=1;" parent="1" vertex="1">
          <mxGeometry x="160" y="160" width="120" height="40" as="geometry" />
        </mxCell>
        <mxCell id="ELnaeVgZSDdQy1VC78Dr-8" value="" style="whiteSpace=wrap;html=1;aspect=fixed;glass=0;comic=0;rounded=1;image=https://remnantfromtheashes.wiki.fextralife.com/file/Remnant-From-The-Ashes/trait_book_consumable_remnant_from_the_ashes_wiki_guide_220px.png;fillColor=#dae8fc;imageWidth=20;imageHeight=20;imageAspect=1;imageAlign=center;absoluteArcSize=0;rotation=0;strokeColor=#6c8ebf;shadow=0;" parent="1" vertex="1">
          <mxGeometry x="160" y="360" width="20" height="20" as="geometry" />
        </mxCell>
        <mxCell id="ELnaeVgZSDdQy1VC78Dr-10" value="Lair of the Eyeless" style="rounded=1;whiteSpace=wrap;html=1;" parent="1" vertex="1">
          <mxGeometry x="160" y="240" width="120" height="40" as="geometry" />
        </mxCell>
        <mxCell id="ELnaeVgZSDdQy1VC78Dr-13" value="" style="edgeStyle=orthogonalEdgeStyle;rounded=0;orthogonalLoop=1;jettySize=auto;html=1;entryX=0.5;entryY=0;entryDx=0;entryDy=0;exitX=0.5;exitY=1;exitDx=0;exitDy=0;" parent="1" source="ELnaeVgZSDdQy1VC78Dr-10" target="ELnaeVgZSDdQy1VC78Dr-5" edge="1">
          <mxGeometry relative="1" as="geometry">
            <mxPoint x="60" y="280" as="sourcePoint" />
            <mxPoint x="60" y="320" as="targetPoint" />
          </mxGeometry>
        </mxCell>
        <mxCell id="ELnaeVgZSDdQy1VC78Dr-15" value="" style="whiteSpace=wrap;html=1;aspect=fixed;glass=0;comic=0;rounded=1;fillColor=#e1d5e7;imageWidth=20;imageHeight=20;imageAspect=1;imageAlign=center;absoluteArcSize=0;rotation=0;strokeColor=#9673a6;shadow=0;" parent="1" vertex="1">
          <mxGeometry x="180" y="360" width="20" height="20" as="geometry" />
        </mxCell>
        <mxCell id="ELnaeVgZSDdQy1VC78Dr-16" value="" style="whiteSpace=wrap;html=1;aspect=fixed;glass=0;comic=0;rounded=1;fillColor=#e1d5e7;imageWidth=20;imageHeight=20;imageAspect=1;imageAlign=center;absoluteArcSize=0;rotation=0;strokeColor=#9673a6;shadow=0;" parent="1" vertex="1">
          <mxGeometry x="40" y="200" width="20" height="20" as="geometry" />
        </mxCell>
        <mxCell id="ELnaeVgZSDdQy1VC78Dr-30" style="edgeStyle=orthogonalEdgeStyle;rounded=0;orthogonalLoop=1;jettySize=auto;html=1;exitX=0.5;exitY=1;exitDx=0;exitDy=0;entryX=0.5;entryY=0;entryDx=0;entryDy=0;" parent="1" source="ELnaeVgZSDdQy1VC78Dr-17" target="ELnaeVgZSDdQy1VC78Dr-22" edge="1">
          <mxGeometry relative="1" as="geometry" />
        </mxCell>
        <mxCell id="ELnaeVgZSDdQy1VC78Dr-17" value="The Iron Rift" style="rounded=1;whiteSpace=wrap;html=1;" parent="1" vertex="1">
          <mxGeometry x="320" y="320" width="120" height="40" as="geometry" />
        </mxCell>
        <mxCell id="ELnaeVgZSDdQy1VC78Dr-18" value="" style="whiteSpace=wrap;html=1;aspect=fixed;glass=0;comic=0;rounded=1;image=https://remnantfromtheashes.wiki.fextralife.com/file/Remnant-From-The-Ashes/trait_book_consumable_remnant_from_the_ashes_wiki_guide_220px.png;fillColor=#dae8fc;imageWidth=20;imageHeight=20;imageAspect=1;imageAlign=center;absoluteArcSize=0;rotation=0;strokeColor=#6c8ebf;shadow=0;" parent="1" vertex="1">
          <mxGeometry x="320" y="360" width="20" height="20" as="geometry" />
        </mxCell>
        <mxCell id="ELnaeVgZSDdQy1VC78Dr-19" value="" style="whiteSpace=wrap;html=1;aspect=fixed;glass=0;comic=0;rounded=1;fillColor=#e1d5e7;imageWidth=20;imageHeight=20;imageAspect=1;imageAlign=center;absoluteArcSize=0;rotation=0;strokeColor=#9673a6;shadow=0;" parent="1" vertex="1">
          <mxGeometry x="340" y="360" width="20" height="20" as="geometry" />
        </mxCell>
        <mxCell id="ELnaeVgZSDdQy1VC78Dr-31" style="edgeStyle=orthogonalEdgeStyle;rounded=0;orthogonalLoop=1;jettySize=auto;html=1;exitX=0;exitY=0.5;exitDx=0;exitDy=0;" parent="1" source="ELnaeVgZSDdQy1VC78Dr-22" target="ELnaeVgZSDdQy1VC78Dr-25" edge="1">
          <mxGeometry relative="1" as="geometry" />
        </mxCell>
        <mxCell id="ELnaeVgZSDdQy1VC78Dr-22" value="&lt;div&gt;The Hive&lt;/div&gt;" style="rounded=1;whiteSpace=wrap;html=1;" parent="1" vertex="1">
          <mxGeometry x="320" y="400" width="120" height="40" as="geometry" />
        </mxCell>
        <mxCell id="ELnaeVgZSDdQy1VC78Dr-64" value="" style="edgeStyle=orthogonalEdgeStyle;rounded=0;orthogonalLoop=1;jettySize=auto;html=1;" parent="1" source="ELnaeVgZSDdQy1VC78Dr-25" target="ELnaeVgZSDdQy1VC78Dr-63" edge="1">
          <mxGeometry relative="1" as="geometry" />
        </mxCell>
        <mxCell id="ELnaeVgZSDdQy1VC78Dr-25" value="Scouring Wastes II" style="rounded=1;whiteSpace=wrap;html=1;" parent="1" vertex="1">
          <mxGeometry x="160" y="400" width="120" height="40" as="geometry" />
        </mxCell>
        <mxCell id="ELnaeVgZSDdQy1VC78Dr-27" value="1" style="whiteSpace=wrap;html=1;aspect=fixed;glass=0;comic=0;rounded=1;fillColor=#e51400;imageWidth=20;imageHeight=20;imageAspect=1;imageAlign=center;absoluteArcSize=0;rotation=0;strokeColor=#B20000;shadow=0;fontColor=#ffffff;" parent="1" vertex="1">
          <mxGeometry x="-120" y="120" width="20" height="20" as="geometry" />
        </mxCell>
        <mxCell id="ELnaeVgZSDdQy1VC78Dr-29" value="3" style="whiteSpace=wrap;html=1;aspect=fixed;glass=0;comic=0;rounded=1;fillColor=#e51400;imageWidth=20;imageHeight=20;imageAspect=1;imageAlign=center;absoluteArcSize=0;rotation=0;strokeColor=#B20000;shadow=0;fontColor=#ffffff;" parent="1" vertex="1">
          <mxGeometry x="180" y="440" width="20" height="20" as="geometry" />
        </mxCell>
        <mxCell id="ELnaeVgZSDdQy1VC78Dr-36" value="1" style="whiteSpace=wrap;html=1;aspect=fixed;glass=0;comic=0;rounded=1;fillColor=#e1d5e7;imageWidth=20;imageHeight=20;imageAspect=1;imageAlign=center;absoluteArcSize=0;rotation=0;strokeColor=#9673a6;shadow=0;image=https://remnantfromtheashes.wiki.fextralife.com/file/Remnant-From-The-Ashes/akari_armor_remnant_from_the_ashes_wiki_guide_220px.png;fontStyle=0;fontColor=#FFFFFF;labelBackgroundColor=#00000060;" parent="1" vertex="1">
          <mxGeometry x="-140" y="120" width="20" height="20" as="geometry" />
        </mxCell>
        <mxCell id="ELnaeVgZSDdQy1VC78Dr-38" value="2" style="whiteSpace=wrap;html=1;aspect=fixed;glass=0;comic=0;rounded=1;fillColor=#e1d5e7;imageWidth=20;imageHeight=20;imageAspect=1;imageAlign=center;absoluteArcSize=0;rotation=0;strokeColor=#9673a6;shadow=0;image=https://remnantfromtheashes.wiki.fextralife.com/file/Remnant-From-The-Ashes/voidcarapace_armor_remnant_from_the_ashes_wiki_guide_220px.png;fontStyle=0;fontColor=#FFFFFF;labelBackgroundColor=#00000060;" parent="1" vertex="1">
          <mxGeometry x="160" y="440" width="20" height="20" as="geometry" />
        </mxCell>
        <mxCell id="ELnaeVgZSDdQy1VC78Dr-40" value="3" style="whiteSpace=wrap;html=1;glass=0;comic=0;rounded=1;fillColor=#e1d5e7;imageWidth=28;imageHeight=9;imageAspect=1;imageAlign=center;absoluteArcSize=0;rotation=0;strokeColor=#9673a6;shadow=0;image=https://remnantfromtheashes.wiki.fextralife.com/file/Remnant-From-The-Ashes/beamrifle_basic_weapon_remnat_from_the_ashes_wiki_guide_250px.png;fontStyle=0;fontColor=#FFFFFF;labelBackgroundColor=#00000060;" parent="1" vertex="1">
          <mxGeometry x="480" y="280" width="20" height="20" as="geometry" />
        </mxCell>
        <mxCell id="ELnaeVgZSDdQy1VC78Dr-41" value="6" style="whiteSpace=wrap;html=1;aspect=fixed;glass=0;comic=0;rounded=1;fillColor=#e51400;imageWidth=20;imageHeight=20;imageAspect=1;imageAlign=center;absoluteArcSize=0;rotation=0;strokeColor=#B20000;shadow=0;fontColor=#ffffff;" parent="1" vertex="1">
          <mxGeometry x="320" y="440" width="20" height="20" as="geometry" />
        </mxCell>
        <mxCell id="ELnaeVgZSDdQy1VC78Dr-42" value="&lt;div&gt;Raze Boss&lt;/div&gt;" style="text;html=1;strokeColor=none;fillColor=none;align=left;verticalAlign=middle;whiteSpace=wrap;rounded=0;shadow=0;glass=0;comic=0;" parent="1" vertex="1">
          <mxGeometry x="520" y="460" width="240" height="22" as="geometry" />
        </mxCell>
        <mxCell id="ELnaeVgZSDdQy1VC78Dr-44" value="5" style="whiteSpace=wrap;html=1;aspect=fixed;glass=0;comic=0;rounded=1;fillColor=#e51400;imageWidth=20;imageHeight=20;imageAspect=1;imageAlign=center;absoluteArcSize=0;rotation=0;strokeColor=#B20000;shadow=0;fontColor=#ffffff;" parent="1" vertex="1">
          <mxGeometry x="160" y="281" width="20" height="20" as="geometry" />
        </mxCell>
        <mxCell id="ELnaeVgZSDdQy1VC78Dr-47" value="" style="edgeStyle=orthogonalEdgeStyle;rounded=0;orthogonalLoop=1;jettySize=auto;html=1;dashed=1;exitX=0.5;exitY=0;exitDx=0;exitDy=0;entryX=0.5;entryY=1;entryDx=0;entryDy=0;" parent="1" source="ELnaeVgZSDdQy1VC78Dr-25" target="ELnaeVgZSDdQy1VC78Dr-5" edge="1">
          <mxGeometry relative="1" as="geometry">
            <mxPoint x="244" y="760" as="sourcePoint" />
            <mxPoint x="244" y="720" as="targetPoint" />
          </mxGeometry>
        </mxCell>
        <mxCell id="ELnaeVgZSDdQy1VC78Dr-52" value="" style="edgeStyle=orthogonalEdgeStyle;rounded=0;orthogonalLoop=1;jettySize=auto;html=1;" parent="1" source="ELnaeVgZSDdQy1VC78Dr-48" target="ELnaeVgZSDdQy1VC78Dr-50" edge="1">
          <mxGeometry relative="1" as="geometry" />
        </mxCell>
        <mxCell id="ELnaeVgZSDdQy1VC78Dr-48" value="Loom of the Black Sun" style="rounded=1;whiteSpace=wrap;html=1;" parent="1" vertex="1">
          <mxGeometry y="320" width="120" height="40" as="geometry" />
        </mxCell>
        <mxCell id="ELnaeVgZSDdQy1VC78Dr-49" value="" style="whiteSpace=wrap;html=1;aspect=fixed;glass=0;comic=0;rounded=1;image=https://remnantfromtheashes.wiki.fextralife.com/file/Remnant-From-The-Ashes/simulacrum_crafting_material_remnant_from_the_ashes_wiki_guide_220px.png;fillColor=#ffe6cc;imageWidth=20;imageHeight=20;imageAspect=1;imageAlign=center;absoluteArcSize=0;rotation=0;strokeColor=#d79b00;shadow=0;" parent="1" vertex="1">
          <mxGeometry y="360" width="20" height="20" as="geometry" />
        </mxCell>
        <mxCell id="ELnaeVgZSDdQy1VC78Dr-50" value="The Spindle" style="rounded=1;whiteSpace=wrap;html=1;" parent="1" vertex="1">
          <mxGeometry y="240" width="120" height="40" as="geometry" />
        </mxCell>
        <mxCell id="ELnaeVgZSDdQy1VC78Dr-53" value="" style="edgeStyle=orthogonalEdgeStyle;rounded=0;orthogonalLoop=1;jettySize=auto;html=1;dashed=1;exitX=0.5;exitY=0;exitDx=0;exitDy=0;" parent="1" source="ELnaeVgZSDdQy1VC78Dr-50" target="i8JC3EVUsBnXg4Bw61Ws-4" edge="1">
          <mxGeometry relative="1" as="geometry">
            <mxPoint x="237" y="400" as="sourcePoint" />
            <mxPoint x="237" y="360" as="targetPoint" />
          </mxGeometry>
        </mxCell>
        <mxCell id="ELnaeVgZSDdQy1VC78Dr-54" style="edgeStyle=orthogonalEdgeStyle;rounded=0;orthogonalLoop=1;jettySize=auto;html=1;exitX=0;exitY=0.5;exitDx=0;exitDy=0;entryX=1;entryY=0.5;entryDx=0;entryDy=0;" parent="1" source="i8JC3EVUsBnXg4Bw61Ws-4" target="i8JC3EVUsBnXg4Bw61Ws-6" edge="1">
          <mxGeometry relative="1" as="geometry">
            <mxPoint x="120" y="165" as="sourcePoint" />
            <mxPoint x="160" y="165" as="targetPoint" />
          </mxGeometry>
        </mxCell>
        <mxCell id="ELnaeVgZSDdQy1VC78Dr-55" value="" style="whiteSpace=wrap;html=1;aspect=fixed;glass=0;comic=0;rounded=1;image=https://remnantfromtheashes.wiki.fextralife.com/file/Remnant-From-The-Ashes/favicon-64.png;fillColor=#f8cecc;imageWidth=20;imageHeight=20;imageAspect=1;imageAlign=center;absoluteArcSize=0;rotation=0;strokeColor=#b85450;shadow=0;" parent="1" vertex="1">
          <mxGeometry x="-160" y="200" width="20" height="20" as="geometry" />
        </mxCell>
        <mxCell id="ELnaeVgZSDdQy1VC78Dr-56" value="" style="whiteSpace=wrap;html=1;aspect=fixed;glass=0;comic=0;rounded=1;fillColor=#e1d5e7;imageWidth=20;imageHeight=20;imageAspect=1;imageAlign=center;absoluteArcSize=0;rotation=0;strokeColor=#9673a6;shadow=0;" parent="1" vertex="1">
          <mxGeometry x="20" y="360" width="20" height="20" as="geometry" />
        </mxCell>
        <mxCell id="ELnaeVgZSDdQy1VC78Dr-57" value="" style="edgeStyle=orthogonalEdgeStyle;shape=link;rounded=0;orthogonalLoop=1;jettySize=auto;html=1;exitX=0;exitY=0.5;exitDx=0;exitDy=0;entryX=1;entryY=0.5;entryDx=0;entryDy=0;" parent="1" source="ELnaeVgZSDdQy1VC78Dr-48" target="ELnaeVgZSDdQy1VC78Dr-58" edge="1">
          <mxGeometry relative="1" as="geometry">
            <mxPoint x="280" y="612" as="sourcePoint" />
            <mxPoint x="-40" y="340" as="targetPoint" />
          </mxGeometry>
        </mxCell>
        <mxCell id="ELnaeVgZSDdQy1VC78Dr-62" value="" style="edgeStyle=orthogonalEdgeStyle;rounded=0;orthogonalLoop=1;jettySize=auto;html=1;" parent="1" source="ELnaeVgZSDdQy1VC78Dr-58" target="ELnaeVgZSDdQy1VC78Dr-59" edge="1">
          <mxGeometry relative="1" as="geometry" />
        </mxCell>
        <mxCell id="ELnaeVgZSDdQy1VC78Dr-58" value="Unnamed" style="rounded=1;whiteSpace=wrap;html=1;" parent="1" vertex="1">
          <mxGeometry x="-160" y="320" width="120" height="40" as="geometry" />
        </mxCell>
        <mxCell id="ELnaeVgZSDdQy1VC78Dr-59" value="The Bunker" style="rounded=1;whiteSpace=wrap;html=1;" parent="1" vertex="1">
          <mxGeometry x="-160" y="241" width="120" height="40" as="geometry" />
        </mxCell>
        <mxCell id="ELnaeVgZSDdQy1VC78Dr-63" value="The Purge Hall" style="rounded=1;whiteSpace=wrap;html=1;" parent="1" vertex="1">
          <mxGeometry x="160" y="480" width="120" height="40" as="geometry" />
        </mxCell>
        <mxCell id="ELnaeVgZSDdQy1VC78Dr-66" value="4" style="whiteSpace=wrap;html=1;glass=0;comic=0;rounded=1;fillColor=#e1d5e7;imageWidth=35;imageHeight=12;imageAspect=1;imageAlign=center;absoluteArcSize=0;rotation=0;strokeColor=#9673a6;shadow=0;image=https://remnantfromtheashes.wiki.fextralife.com/file/Remnant-From-The-Ashes/wastelandflail_melee_weapon_remnant_from_the_ashes_wiki_guide_250px.png;fontStyle=0;fontColor=#FFFFFF;labelBackgroundColor=#00000060;" parent="1" vertex="1">
          <mxGeometry x="180" y="520" width="20" height="20" as="geometry" />
        </mxCell>
        <mxCell id="ELnaeVgZSDdQy1VC78Dr-68" value="" style="whiteSpace=wrap;html=1;aspect=fixed;glass=0;comic=0;rounded=1;image=https://remnantfromtheashes.wiki.fextralife.com/file/Remnant-From-The-Ashes/trait_book_consumable_remnant_from_the_ashes_wiki_guide_220px.png;fillColor=#dae8fc;imageWidth=20;imageHeight=20;imageAspect=1;imageAlign=center;absoluteArcSize=0;rotation=0;strokeColor=#6c8ebf;shadow=0;" parent="1" vertex="1">
          <mxGeometry x="160" y="520" width="20" height="20" as="geometry" />
        </mxCell>
        <mxCell id="ELnaeVgZSDdQy1VC78Dr-70" value="" style="rounded=1;whiteSpace=wrap;html=1;" parent="1" vertex="1">
          <mxGeometry x="-160" width="120" height="40" as="geometry" />
        </mxCell>
      </root>
    </mxGraphModel>
  </diagram>
</mxfile>
